<svg width="810" height="810" viewBox="0 0 810 810" fill="none" xmlns="http://www.w3.org/2000/svg">
<g filter="url(#filter0_d_331_38)">
<path d="M7.08643 420.592V23.2541C7.08643 12.0725 16.2364 4.68213 27.418 4.68213H786.582C797.756 4.68213 806.914 12.0725 806.914 23.2541V420.592H7.08643Z" fill="#263740"/>
<path d="M407 36.676C411.418 36.676 414.999 33.0951 414.999 28.6777C414.999 24.2604 411.418 20.6794 407 20.6794C402.583 20.6794 399.002 24.2604 399.002 28.6777C399.002 33.0951 402.583 36.676 407 36.676Z" fill="#CC584C"/>
<path d="M535.788 668.267C495.125 654.71 474.785 564.561 474.785 540.567H407H339.214C339.214 564.561 318.883 654.71 278.211 668.267C271.429 668.267 264.654 673.618 264.654 680.401C264.654 687.191 271.437 692.542 278.211 692.542C291.76 692.534 407 692.534 407 692.534C407 692.534 522.231 692.534 535.788 692.534C542.578 692.534 549.345 687.175 549.345 680.393C549.345 673.61 542.562 668.267 535.788 668.267Z" fill="#F5F5F5"/>
<path d="M407.001 492.577C415.836 492.577 422.998 485.416 422.998 476.581C422.998 467.746 415.836 460.584 407.001 460.584C398.166 460.584 391.004 467.746 391.004 476.581C391.004 485.416 398.166 492.577 407.001 492.577Z" fill="#F5F5F5"/>
<path d="M335.016 141.429C335.016 116.603 353.572 106.933 374.712 119.954L494.046 192.986C515.201 205.992 515.513 227.275 494.366 240.288L374.56 313.328C353.412 326.334 335.016 316.664 335.016 291.853V141.429Z" fill="#CC584C"/>
<path d="M7.08643 420.592V23.2541C7.08643 12.0725 16.2364 4.68213 27.418 4.68213H786.582C797.756 4.68213 806.914 12.0725 806.914 23.2541V420.592H7.08643Z" fill="#263740"/>
<path d="M774.921 44.6736H39.0801V388.599H774.921V44.6736Z" fill="#E16B5A"/>
<path d="M407 36.6755C411.417 36.6755 414.998 33.0945 414.998 28.6772C414.998 24.2599 411.417 20.679 407 20.679C402.582 20.679 399.001 24.2599 399.001 28.6772C399.001 33.0945 402.582 36.6755 407 36.6755Z" fill="#CC584C"/>
<path d="M535.787 668.268C495.124 654.711 474.784 564.562 474.784 540.567H406.999H339.214C339.214 564.562 318.882 654.711 278.211 668.268C271.428 668.268 264.654 673.618 264.654 680.401C264.654 687.191 271.436 692.542 278.211 692.542C291.76 692.534 406.999 692.534 406.999 692.534C406.999 692.534 522.23 692.534 535.787 692.534C542.578 692.534 549.344 687.176 549.344 680.393C549.344 673.61 542.562 668.268 535.787 668.268Z" fill="#F5F5F5"/>
<path d="M406.999 492.577C415.834 492.577 422.996 485.415 422.996 476.581C422.996 467.746 415.834 460.584 406.999 460.584C398.164 460.584 391.002 467.746 391.002 476.581C391.002 485.415 398.164 492.577 406.999 492.577Z" fill="#F5F5F5"/>
<path d="M343.013 123.001C343.013 118.778 346.764 117.21 350.292 119.53L486.398 208.422C489.933 210.742 490.141 214.525 486.606 216.845L350.18 305.745C346.652 308.057 343.013 306.489 343.013 302.274V123.001Z" fill="#F5F5F5"/>
</g>
<g filter="url(#filter1_d_331_38)">
<path d="M494.549 539.536C527.988 539.536 555.095 512.429 555.095 478.99C555.095 445.552 527.988 418.444 494.549 418.444C461.111 418.444 434.003 445.552 434.003 478.99C434.003 512.429 461.111 539.536 494.549 539.536Z" fill="#1B4145"/>
<path d="M494.549 584.12C430.712 584.12 378.961 635.871 378.961 699.708H610.138C610.138 635.871 558.387 584.12 494.549 584.12Z" fill="#1B4145"/>
</g>
<g filter="url(#filter2_d_331_38)">
<path d="M312.911 539.536C346.349 539.536 373.457 512.429 373.457 478.99C373.457 445.552 346.349 418.444 312.911 418.444C279.472 418.444 252.365 445.552 252.365 478.99C252.365 512.429 279.472 539.536 312.911 539.536Z" fill="#609399"/>
<path d="M312.91 585.771C248.465 585.771 196.222 636.043 196.222 698.057H429.599C429.599 636.043 377.357 585.771 312.91 585.771Z" fill="#609399"/>
</g>
<g filter="url(#filter3_d_331_38)">
<path d="M615.642 801.536C655.161 801.536 687.197 769.5 687.197 729.982C687.197 690.463 655.161 658.427 615.642 658.427C576.123 658.427 544.087 690.463 544.087 729.982C544.087 769.5 576.123 801.536 615.642 801.536Z" fill="#F14742"/>
</g>
<defs>
<filter id="filter0_d_331_38" x="0.0864258" y="0.682129" width="809.827" height="697.86" filterUnits="userSpaceOnUse" color-interpolation-filters="sRGB">
<feFlood flood-opacity="0" result="BackgroundImageFix"/>
<feColorMatrix in="SourceAlpha" type="matrix" values="0 0 0 0 0 0 0 0 0 0 0 0 0 0 0 0 0 0 127 0" result="hardAlpha"/>
<feOffset dx="-2" dy="1"/>
<feGaussianBlur stdDeviation="2.5"/>
<feComposite in2="hardAlpha" operator="out"/>
<feColorMatrix type="matrix" values="0 0 0 0 0 0 0 0 0 0 0 0 0 0 0 0 0 0 0.25 0"/>
<feBlend mode="normal" in2="BackgroundImageFix" result="effect1_dropShadow_331_38"/>
<feBlend mode="normal" in="SourceGraphic" in2="effect1_dropShadow_331_38" result="shape"/>
</filter>
<filter id="filter1_d_331_38" x="374.961" y="418.444" width="239.176" height="289.263" filterUnits="userSpaceOnUse" color-interpolation-filters="sRGB">
<feFlood flood-opacity="0" result="BackgroundImageFix"/>
<feColorMatrix in="SourceAlpha" type="matrix" values="0 0 0 0 0 0 0 0 0 0 0 0 0 0 0 0 0 0 127 0" result="hardAlpha"/>
<feOffset dy="4"/>
<feGaussianBlur stdDeviation="2"/>
<feComposite in2="hardAlpha" operator="out"/>
<feColorMatrix type="matrix" values="0 0 0 0 0 0 0 0 0 0 0 0 0 0 0 0 0 0 0.25 0"/>
<feBlend mode="normal" in2="BackgroundImageFix" result="effect1_dropShadow_331_38"/>
<feBlend mode="normal" in="SourceGraphic" in2="effect1_dropShadow_331_38" result="shape"/>
</filter>
<filter id="filter2_d_331_38" x="192.222" y="418.444" width="241.377" height="287.612" filterUnits="userSpaceOnUse" color-interpolation-filters="sRGB">
<feFlood flood-opacity="0" result="BackgroundImageFix"/>
<feColorMatrix in="SourceAlpha" type="matrix" values="0 0 0 0 0 0 0 0 0 0 0 0 0 0 0 0 0 0 127 0" result="hardAlpha"/>
<feOffset dy="4"/>
<feGaussianBlur stdDeviation="2"/>
<feComposite in2="hardAlpha" operator="out"/>
<feColorMatrix type="matrix" values="0 0 0 0 0 0 0 0 0 0 0 0 0 0 0 0 0 0 0.25 0"/>
<feBlend mode="normal" in2="BackgroundImageFix" result="effect1_dropShadow_331_38"/>
<feBlend mode="normal" in="SourceGraphic" in2="effect1_dropShadow_331_38" result="shape"/>
</filter>
<filter id="filter3_d_331_38" x="540.087" y="658.427" width="151.109" height="151.109" filterUnits="userSpaceOnUse" color-interpolation-filters="sRGB">
<feFlood flood-opacity="0" result="BackgroundImageFix"/>
<feColorMatrix in="SourceAlpha" type="matrix" values="0 0 0 0 0 0 0 0 0 0 0 0 0 0 0 0 0 0 127 0" result="hardAlpha"/>
<feOffset dy="4"/>
<feGaussianBlur stdDeviation="2"/>
<feComposite in2="hardAlpha" operator="out"/>
<feColorMatrix type="matrix" values="0 0 0 0 0 0 0 0 0 0 0 0 0 0 0 0 0 0 0.25 0"/>
<feBlend mode="normal" in2="BackgroundImageFix" result="effect1_dropShadow_331_38"/>
<feBlend mode="normal" in="SourceGraphic" in2="effect1_dropShadow_331_38" result="shape"/>
</filter>
</defs>
</svg>
